<svg width="318.188" height="318.188" xmlns="http://www.w3.org/2000/svg">

 <g>
  <title>background</title>
  <rect fill="none" id="canvas_background" height="402" width="582" y="-1" x="-1"/>
 </g>
 <g>
  <title>Layer 1</title>
  <g id="svg_1">
   <polygon id="svg_2" fill="#E8E8E8" points="227.321,7.5 40.342,7.5 40.342,310.688 277.846,310.688 277.846,58.025  "/>
   <g id="svg_3">
    <rect id="svg_4" fill="#D1D3D3" height="12.865" width="49.543" y="173.87" x="100.317"/>
    <rect id="svg_5" fill="#D1D3D3" height="12.865" width="107.543" y="149.229" x="100.317"/>
    <rect id="svg_6" fill="#D1D3D3" height="12.865" width="117.551" y="124.587" x="100.317"/>
    <rect id="svg_7" fill="#D1D3D3" height="12.865" width="82.209" y="99.945" x="100.317"/>
    <rect id="svg_8" fill="#D1D3D3" height="12.865" width="117.551" y="75.304" x="100.317"/>
   </g>
   <polygon id="svg_9" fill="#A4A9AD" points="235.14,32.763 40.342,32.763 40.342,7.5 227.321,7.5  "/>
   <polygon id="svg_10" fill="#D1D3D3" points="227.321,58.025 277.846,58.025 227.321,7.5  "/>
   <path id="svg_11" fill="#333E48" d="m283.149,52.723l-50.524,-50.526c-1.407,-1.407 -3.314,-2.197 -5.304,-2.197l-186.979,0c-4.143,0 -7.5,3.358 -7.5,7.5l0,303.188c0,4.143 3.357,7.5 7.5,7.5l237.504,0c4.143,0 7.5,-3.357 7.5,-7.5l0,-252.663c0,-1.989 -0.79,-3.896 -2.197,-5.302zm-48.328,-27.117l24.918,24.919l-24.918,0l0,-24.919l0,0zm-186.979,-10.606l171.979,0l0,10.263l-171.979,0l0,-10.263zm222.504,288.188l-222.504,0l0,-262.925l171.979,0l0,17.763c0,4.143 3.357,7.5 7.5,7.5l43.024,0l0,237.662l0.001,0zm-89.042,-69.796l-14.801,0c-2.77867,4.94467 -5.55733,9.88933 -8.336,14.834l-8.664,-14.834l-14.373,0l14.965,23.433l-15.917,24.547l14.669,0l9.256,-14.998l9.352,14.998l14.998,0l-16.344,-23.53l15.195,-24.45z"/>
  </g>
  <g id="svg_12"/>
  <g id="svg_13"/>
  <g id="svg_14"/>
  <g id="svg_15"/>
  <g id="svg_16"/>
  <g id="svg_17"/>
  <g id="svg_18"/>
  <g id="svg_19"/>
  <g id="svg_20"/>
  <g id="svg_21"/>
  <g id="svg_22"/>
  <g id="svg_23"/>
  <g id="svg_24"/>
  <g id="svg_25"/>
  <g id="svg_26"/>
 </g>
</svg>